# xmcd
#
# Track frame offsets:
#	150
#	12992
#	23661
#	35353
#	50153
#	62655
#	75125
#	89319
#	103743
#	116442
#	129725
#	144681
#	157500
#	170903
#	187475
#
# Disc length: 2698 seconds
# Revision: 0
# Processed by: cddbd v1.5.2PL0 Copyright (c) Steve Scherf et al.
# Submitted via: dBpowerAMP V12.0
#
DISCID=c50a880f
DTITLE=Various Artist - Roots of Funk [CD 7)
DYEAR=2011
DGENRE=Funk
TTITLE0=Rufus Thomas - Bearcat
TTITLE1=The Coasters - Young Blood
TTITLE2=Tampa Red - Let Me Play With Your Poodle
TTITLE3=Lowell Fulson - I Wanna Make Love to You
TTITLE4=John Lee Hooker - I'm in the Mood
TTITLE5=Blue Lu Barker - Loan Me Your Husband
TTITLE6=Buddy Moss - You Got to Give Me Some
TTITLE7=Lil Johnson - Get'em from the Peanut Man (Hot Nuts)
TTITLE8=Lilie Mae Kirkman - He's Just My Size
TTITLE9=Hunter and Jenkins - Meat Cuttin' Blues
TTITLE10=Lonnie Johnson - Wipe It Off
TTITLE11=Blue Lu Barker - Bow Legged Daddy
TTITLE12=Hunter and Jenkins - Lollypop
TTITLE13=John Lee Hooker - Good Mornin', Lil' School Girl
TTITLE14=The Coasters - Down in Mexico
EXTD=
EXTT0=
EXTT1=
EXTT2=
EXTT3=
EXTT4=
EXTT5=
EXTT6=
EXTT7=
EXTT8=
EXTT9=
EXTT10=
EXTT11=
EXTT12=
EXTT13=
EXTT14=
PLAYORDER=
